<?xml version="1.0" encoding="utf-8"?>
<!-- Svg Vector Icons : http://www.onlinewebfonts.com/icon -->
<!DOCTYPE svg PUBLIC "-//W3C//DTD SVG 1.1//EN" "http://www.w3.org/Graphics/SVG/1.1/DTD/svg11.dtd">
<svg version="1.1" xmlns="http://www.w3.org/2000/svg" xmlns:xlink="http://www.w3.org/1999/xlink" x="0px" y="0px" viewBox="0 0 1000 1000" enable-background="new 0 0 1000 1000" xml:space="preserve">
<metadata> Svg Vector Icons : http://www.onlinewebfonts.com/icon </metadata>
<g><g transform="translate(0.000000,511.000000) scale(0.100000,-0.100000)"><path fill="#c70101" d="M4557.6,4998.6c-951-92.4-1830.7-442.8-2598.8-1037.6c-369.6-284.9-847-818.1-1124.2-1253.2c-121.3-190.6-358.1-675.7-442.7-906.7c-94.3-259.9-196.4-654.5-246.4-960.6c-59.7-379.2-61.6-1070.3,0-1453.4c86.6-539,217.5-958.7,454.3-1443.8c248.3-508.2,525.5-891.3,945.2-1309c406.2-406.2,785.4-677.6,1289.8-924c481.3-234.9,904.8-369.6,1434.1-456.2c375.4-59.7,1066.5-59.7,1453.4,0c525.5,82.8,956.7,217.5,1443.8,456.2c968.3,471.6,1757.5,1260.9,2233,2233c236.8,485.1,373.5,918.2,456.2,1443.8c59.7,386.9,59.7,1078,0,1453.4c-86.6,529.4-221.4,952.9-456.2,1434.1c-246.4,504.4-517.8,883.6-924,1289.8c-417.7,419.6-800.8,696.9-1309,945.2c-481.3,234.8-906.7,369.6-1426.4,450.4C5458.5,5004.4,4827.1,5025.6,4557.6,4998.6z M5318,2141.9c102-48.1,246.4-186.7,1243.5-1183.9C7868.6-347.1,7801.3-264.4,7801.3-603.2c0-179-5.8-215.6-52-311.9c-65.4-142.4-215.6-292.6-358-358c-96.3-46.2-132.8-52-311.9-52c-331.1,0-292.6-28.9-1255.1,931.7l-823.9,818.1l-822-818.1C3212-1352,3248.6-1325,2921.3-1325c-177.1,0-215.6,5.8-308,50.1c-157.9,75.1-277.2,190.6-350.4,340.7c-59.7,121.3-63.5,140.5-63.5,331.1c0,336.9-59.7,259.9,1191.6,1516.9c594.8,596.8,1120.4,1114.6,1170.4,1151.2c148.2,109.7,265.6,144.4,467.8,136.7C5169.8,2195.8,5223.7,2184.2,5318,2141.9z"/></g></g>
</svg>