<?xml version="1.0" encoding="utf-8"?>
<!-- Svg Vector Icons : http://www.onlinewebfonts.com/icon -->
<!DOCTYPE svg PUBLIC "-//W3C//DTD SVG 1.1//EN" "http://www.w3.org/Graphics/SVG/1.1/DTD/svg11.dtd">
<svg version="1.1" xmlns="http://www.w3.org/2000/svg" xmlns:xlink="http://www.w3.org/1999/xlink" x="0px" y="0px" viewBox="0 0 1000 1000" enable-background="new 0 0 1000 1000" xml:space="preserve">
<metadata> Svg Vector Icons : http://www.onlinewebfonts.com/icon </metadata>
<g><g transform="translate(0.000000,511.000000) scale(0.100000,-0.100000)"><path d="M2406.2,4220.8c-575.5-68.5-1093.5-312.4-1482.7-707.1C608.3,3198.6,391.8,2817.6,274,2368.1c-85-328.9-98.7-857.8-30.1-1173c57.5-260.4,202.8-627.6,287.8-726.3C641.2,334.6,830.3,362,896.1,520.9c30.1,74,21.9,104.2-79.5,331.6c-150.7,331.6-200.1,556.3-200.1,890.7c0,597.5,224.7,1099,685.2,1523.8c701.6,646.8,1638.9,748.2,2452.9,268.6c139.8-82.2,331.6-249.4,649.5-559.1c249.4-246.7,479.6-460.4,515.2-476.9c32.9-19.2,90.5-24.7,123.3-13.7c32.9,8.2,257.7,211,498.8,446.7c241.2,238.4,518,485.1,613.9,548.1c301.5,202.8,633.1,320.7,1003.1,348.1c808.5,63,1638.9-422.1,2011.7-1181.2c276.8-561.8,290.5-1159.3,38.3-1726.6c-128.8-290.5-134.3-339.8-63-433c46.6-57.6,82.2-74,167.2-74c93.2,0,117.9,13.7,186.4,109.6c93.2,131.6,235.7,548.1,279.5,825c19.2,117.8,24.7,326.1,16.5,504.3c-60.3,1170.3-838.7,2085.7-1976,2332.3c-238.4,52.1-767.4,60.3-989.4,13.7c-359-74-704.4-213.8-972.9-394.7c-68.5-46.6-287.8-243.9-485.1-441.3l-364.5-356.3l-320.7,315.2c-400.1,391.9-556.4,509.8-885.2,666c-301.5,142.5-493.3,194.6-835.9,235.7C2691.3,4253.7,2694,4253.7,2406.2,4220.8z"/><path d="M4017.7,1866.6c-24.7-13.7-213.8-433-424.8-931.8L3214.7,30.3H1751.2C210.9,30.3,164.4,27.6,117.8-93c-35.6-93.2-16.4-197.3,46.6-254.9l63-60.3h1592.3c877,0,1614.3,8.2,1638.9,16.5c57.6,21.9,85,76.7,386.4,800.3c142.5,342.6,268.6,630.4,279.5,641.3c11,11,202.8-482.4,430.3-1096.3c638.6-1740.3,687.9-1869.2,742.7-1910.3c71.3-54.8,186.4-49.3,254.9,8.2c32.9,24.7,202.8,391.9,397.4,855.1l342.6,808.5l1737.6,13.7c1633.5,13.7,1743.1,16.5,1795.1,63c30.2,27.4,63,79.5,71.3,117.9c19.2,76.7-43.9,216.5-106.9,241.2c-24.7,8.2-868.8,16.4-1874.6,16.4c-1545.7,0-1836.2-5.5-1882.9-38.4c-35.6-24.7-156.2-279.6-312.4-652.3c-139.8-337.1-263.1-619.4-271.3-630.4c-16.4-19.2-1071.6,2814.7-1071.6,2875c0,13.7-30.2,60.3-68.5,101.4C4239.7,1896.8,4105.4,1918.7,4017.7,1866.6z"/>
<path d="M6446-2052.6L4993.4-3505.1L3582-2093.7C2291.1-805.6,2162.3-682.2,2080.1-682.2c-120.6,0-224.7-104.1-224.7-224.7c0-82.2,131.5-219.3,1515.6-1603.3c1490.9-1493.7,1515.6-1515.6,1622.5-1515.6s128.8,21.9,1669.1,1559.5C8134.2-994.7,8224.7-898.7,8224.7-808.3c0,134.3-74,208.3-213.8,208.3C7901.3-600,7887.6-611,6446-2052.6z"/></g></g>
</svg>