<?xml version="1.0" encoding="UTF-8"?>
<svg width="700pt" height="700pt" version="1.1" viewBox="0 0 700 700" xmlns="http://www.w3.org/2000/svg" xmlns:xlink="http://www.w3.org/1999/xlink">
 <g>
  <path d="m604.03 252.57h-32.473 0.003906c6.3984-18.168 9.7812-37.262 10.012-56.523 0-85.633-44.711-136.76-119.61-136.76-43.195 0.875-83.945 20.203-111.96 53.094-28.012-32.891-68.766-52.219-111.96-53.098-74.898 0-119.61 51.125-119.61 136.76 0.23047 19.262 3.6094 38.355 10.012 56.523h-32.473c-4.6445 0.046875-8.3828 3.8242-8.3828 8.4688 0 4.6445 3.7383 8.4219 8.3828 8.4688h39.004c50.855 119.36 202.54 224.46 210.25 229.73l0.003906-0.003906c2.8789 1.9766 6.6758 1.9766 9.5547 0 7.6992-5.2734 159.39-110.37 210.25-229.73h39.004l0.003906 0.003906c4.6445-0.046875 8.3828-3.8242 8.3828-8.4688 0-4.6445-3.7383-8.4219-8.3828-8.4688zm-468.67-56.527c0-76.148 37.426-119.82 102.68-119.82 66.137 0 104.62 53.992 105.01 54.539 1.6641 2.1445 4.2305 3.3984 6.9453 3.3984s5.2812-1.2539 6.9453-3.3984c0.38672-0.54688 38.875-54.539 105.01-54.539 65.254 0 102.68 43.676 102.68 119.82-0.3125 19.352-4.0742 38.492-11.105 56.523h-124.04l-23.832-75.312c-1.1016-3.4922-4.3281-5.875-7.9883-5.9102h-0.085937c-3.6328-0.003906-6.8594 2.3125-8.0234 5.75l-44.273 130.54-37.512-94.66c-1.1914-3.0156-4.0039-5.0859-7.2344-5.3281-3.2422-0.27734-6.3477 1.3555-7.957 4.1797l-23.734 40.738h-122.39c-7.0273-18.031-10.785-37.172-11.098-56.523zm214.64 285.83c-25.906-18.621-149.55-111.18-196.48-212.37h120.2c3.0156-0.003906 5.8008-1.6016 7.3203-4.2031l17.406-29.887 39.586 99.867v0.003906c1.2812 3.2266 4.4023 5.3477 7.875 5.3477l0.21484-0.003907v-0.003906c3.5469-0.085937 6.6641-2.375 7.8047-5.7383l43.387-127.88 17.902 56.582h0.003906c1.1094 3.5234 4.3789 5.9141 8.0703 5.9141h123.17c-46.934 101.15-170.55 193.73-196.46 212.36z"/>
  <use x="70" y="691.25" xlink:href="#f"/>
  <use x="102.109375" y="691.25" xlink:href="#e"/>
  <use x="123.683594" y="691.25" xlink:href="#b"/>
  <use x="153.355469" y="691.25" xlink:href="#a"/>
  <use x="182.878906" y="691.25" xlink:href="#d"/>
  <use x="203.792969" y="691.25" xlink:href="#b"/>
  <use x="233.464844" y="691.25" xlink:href="#j"/>
  <use x="280.011719" y="691.25" xlink:href="#i"/>
  <use x="311.328125" y="691.25" xlink:href="#h"/>
  <use x="355.078125" y="691.25" xlink:href="#g"/>
  <use x="386.589844" y="691.25" xlink:href="#c"/>
  <use x="401.585938" y="691.25" xlink:href="#c"/>
  <use x="416.582031" y="691.25" xlink:href="#m"/>
  <use x="447.898438" y="691.25" xlink:href="#l"/>
  <use x="476.996094" y="691.25" xlink:href="#a"/>
  <use x="506.515625" y="691.25" xlink:href="#k"/>
  <use x="552.894531" y="691.25" xlink:href="#f"/>
  <use x="585.003906" y="691.25" xlink:href="#e"/>
  <use x="606.578125" y="691.25" xlink:href="#b"/>
  <use x="636.25" y="691.25" xlink:href="#a"/>
  <use x="665.773437" y="691.25" xlink:href="#d"/>
  <use x="686.6875" y="691.25" xlink:href="#c"/>
 </g>
</svg>
