<?xml version="1.0" encoding="utf-8"?>
<!-- Svg Vector Icons : http://www.onlinewebfonts.com/icon -->
<!DOCTYPE svg PUBLIC "-//W3C//DTD SVG 1.1//EN" "http://www.w3.org/Graphics/SVG/1.1/DTD/svg11.dtd">
<svg version="1.1" xmlns="http://www.w3.org/2000/svg" xmlns:xlink="http://www.w3.org/1999/xlink" x="0px" y="0px" viewBox="0 0 1000 1000" enable-background="new 0 0 1000 1000" xml:space="preserve">
<metadata> Svg Vector Icons : http://www.onlinewebfonts.com/icon </metadata>
<g><g transform="translate(0.000000,642.000000) scale(0.100000,-0.100000)"><path d="M1016.3,6299.7c-223.6-44.4-413.6-147-580.5-314c-121-122.5-193-229.8-255.8-382.9c-85.8-214.4-82.7,4.6-78.1-4242.8l4.6-3913.5l35.2-107.2c70.5-206.8,151.6-341.6,294.1-482.5c150.1-148.6,249.7-212.9,439.6-281.8l134.8-47.5l3951.8-4.6c3922.7-3.1,3951.8-3.1,4074.4,27.6c418.2,105.7,729.1,416.6,834.8,834.8c30.6,122.5,30.6,151.6,27.6,4074.3l-4.6,3951.8l-47.5,134.8c-67.4,185.3-131.7,288-274.2,433.5c-140.9,142.4-261.9,217.5-459.5,286.4l-137.9,49l-3928.8,3.1C1831.2,6319.6,1099,6316.6,1016.3,6299.7z M8511,5170.9c78.1-23,193-125.6,228.2-203.7c26-56.7,29.1-113.3,29.1-719.9c0-739.8,1.5-724.5-116.4-837.8c-107.2-102.6-117.9-104.2-831.7-104.2h-638.7l-79.6,39.8c-44.4,21.4-101.1,64.3-125.6,95c-88.8,107.2-93.4,148.6-88.8,840.9l4.6,626.5l38.3,73.5c44.4,85.8,122.5,154.7,208.3,185.3C7218.2,5195.4,8419.1,5198.4,8511,5170.9z M5398.5,3260.8c372.2-84.2,684.7-257.3,948.1-523.8c716.8-724.5,718.4-1907,1.5-2634.5c-263.5-266.5-548.3-427.4-926.7-520.8c-177.7-44.4-520.8-55.1-719.9-23c-827.1,136.3-1461.2,795-1570,1632.8c-33.7,263.5-3.1,559.1,85.8,827.1c96.5,289.5,254.3,539.2,479.4,755.1c284.9,274.2,628,445.7,1020.1,508.5C4896.1,3311.4,5220.9,3300.6,5398.5,3260.8z M2065.5,2092.1c-64.3-242-93.4-641.8-68.9-911.4C2106.9-14,2849.8-994.3,3960.3-1410.9c349.2-130.2,623.4-177.7,1047.7-177.7c263.5,0,355.4,6.1,505.5,33.7c476.4,85.8,916,275.7,1302,562.1c157.8,117.9,481,441.1,598.9,598.9c519.3,698.5,713.8,1566.9,540.7,2410.9c-15.3,78.1-29.1,145.5-29.1,148.6c0,3.1,189.9,6.1,421.2,6.1h421.2l-3.1-2133.7l-4.6-2135.2l-45.9-75c-29.1-45.9-75.1-91.9-121-121l-75-45.9l-3486.2-4.6c-2342-3.1-3504.6,0-3539.8,10.7c-79.7,23-182.3,117.9-223.6,206.8l-36.8,78.1V62.6v2109.2h427.3H2087L2065.5,2092.1z"/></g></g>
</svg>