<?xml version="1.0" encoding="utf-8"?>
<!-- Svg Vector Icons : http://www.onlinewebfonts.com/icon -->
<!DOCTYPE svg PUBLIC "-//W3C//DTD SVG 1.1//EN" "http://www.w3.org/Graphics/SVG/1.1/DTD/svg11.dtd">
<svg version="1.1" xmlns="http://www.w3.org/2000/svg" xmlns:xlink="http://www.w3.org/1999/xlink" x="0px" y="0px" viewBox="0 0 1000 1000" enable-background="new 0 0 1000 1000" xml:space="preserve">
<metadata> Svg Vector Icons : http://www.onlinewebfonts.com/icon </metadata>
<g><g transform="translate(0.000000,511.000000) scale(0.100000,-0.100000)"><path d="M7419.6,3734.7c-82.3-33.4-200.5-146.6-244.3-231.4c-20.6-38.6-56.6-182.6-79.7-321.4c-46.3-275.1-136.3-534.8-267.4-753.3c-241.7-414-617.1-771.4-982.2-941.1l-133.7-61.7l-69.4,123.4c-138.9,239.1-383.1,398.5-617.1,398.5c-259.7-2.6-486-169.7-637.6-467.9c-41.1-79.7-149.1-275.1-239.1-429.4C3478-93.8,2878.9-813.7,2398.1-1042.5c-241.7-118.3-452.5-174.9-1051.6-285.4c-529.7-95.1-660.8-138.8-791.9-249.4c-203.1-174.8-311.1-437.1-385.7-946.2c-28.3-182.5-56.6-365.1-64.3-401.1c-25.7-120.8,48.8-169.7,403.7-264.8c1681.5-457.7,3188.2-457.7,4121.6-2.6c264.8,128.6,79.7-18,2697.2,2154.6C9258,567.1,9754.2,1006.7,9849.3,1204.7c74.6,156.8,66.8,342-23.2,478.2c-105.4,162-1856.4,1902.7-1997.8,1984.9C7694.7,3745,7514.7,3775.9,7419.6,3734.7z M7730.7,3431.3c61.7-38.6,146.6-108,187.7-151.7l72-77.1l-282.8-575.9C6915.6,1027.3,6044-91.2,4925.5-939.6c-730.2-552.8-1205.9-768.8-1979.8-899.9c-401.1-69.4-1064.5-110.6-1414.1-92.6c-416.5,23.1-833.1,66.9-856.2,90c-30.9,28.3,97.7,120.8,234,164.6c66.9,20.6,318.8,74.6,557.9,118.3c581.1,105.4,771.3,159.4,1085,311.1c146.5,69.4,288,126,313.7,126c108,0,745.6,180,961.6,270c465.4,198,889.6,504,1190.5,863.9c190.3,228.8,483.4,663.3,653.1,966.8c108,192.8,126,213.4,249.4,264.8c668.5,277.7,1316.4,1126.2,1419.3,1856.4C7396.4,3503.3,7491.6,3585.6,7730.7,3431.3z M8368.3,2672.8c-105.4-162-316.3-601.7-385.7-809.9c-97.7-288-174.9-699.4-195.4-1031l-15.4-270l-375.4-308.5C6126.3-788,4935.8-1718.7,4509-1999c-326.5-213.4-761-367.7-1306.1-465.4c-321.4-56.6-1298.4-41.1-1735.5,25.7c-336.8,51.4-951.3,187.7-979.6,216c-5.1,7.7,0,41.1,12.9,77.1l23.1,64.3l190.3-36c270-51.4,1427-74.5,1810.1-36c899.9,90,1517,298.2,2170.1,735.3C6015.7-538.6,7082.8,762.5,7951.8,2546.8l221.1,450l123.4-123.4l126-123.4L8368.3,2672.8z M8921.1,2248.6l306-306l-66.8-113.1c-113.1-190.3-239.1-316.3-691.7-691.6l-439.7-365.1l18,190.3c23.1,244.3,102.9,614.5,182.5,845.9s336.8,745.6,372.8,745.6C8610,2554.6,8754,2415.7,8921.1,2248.6z M9540.8,1628.9c82.3-84.8,102.9-123.4,102.9-200.5c0-126-79.7-228.8-429.4-547.7c-216-200.5-3342.5-2810.3-4257.8-3555.9c-496.2-401.1-1025.9-570.8-1897.5-599.1c-475.7-18-894.8,15.4-1475.8,110.6c-357.4,59.1-1169.9,246.8-1200.7,277.7c-5.1,5.1,2.6,100.3,20.6,208.3c30.8,177.4,38.6,195.4,87.4,182.6c838.2-226.3,1869.2-321.4,2571.2-236.6c581.1,69.4,1105.6,228.8,1483.6,455.1c398.5,234,1635.2,1200.7,3465.9,2707.4c1061.9,874.2,1167.3,966.8,1301,1162.2c54,77.1,102.8,138.8,113.1,138.8C9432.8,1731.8,9486.8,1685.5,9540.8,1628.9z M5180.1,1657.2c95.1-51.4,259.7-213.4,259.7-259.7c0-43.7-128.6-59.1-349.7-43.7c-216,15.4-421.7,61.7-421.7,95.1c0,48.8,123.4,164.6,216,208.3C5018.1,1718.9,5059.2,1716.4,5180.1,1657.2z M4681.3,1150.7c72-20.6,270-46.3,442.3-54l316.2-15.4l-56.6-92.6c-156.8-264.8-447.4-681.4-593.9-853.6c-300.8-352.3-763.6-655.6-1265-827.9c-432-149.1-429.4-149.1-272.5,23.2C3326.3-590,3460-428,3550-312.3c92.6,118.3,192.8,218.6,223.7,228.8c33.4,7.7,128.6,15.4,210.8,15.4c105.4,0,167.1,12.9,200.6,43.7c102.8,92.5,23.1,205.7-154.3,218.6c-100.3,7.7-108,12.9-77.1,54c25.7,36,84.8,48.9,259.7,61.7c198,12.9,231.4,23.1,264.8,74.6c77.1,115.7-48.8,216-221.1,180c-84.8-15.4-100.3,18-41.1,95.1c25.7,33.4,72,43.7,218.5,43.7c223.7,0,285.4,28.3,285.4,123.4c0,102.8-43.7,133.7-185.1,133.7c-66.8,0-123.4,7.7-123.4,15.4c0,25.7,110.6,216,126,216C4545,1191.8,4611.9,1173.8,4681.3,1150.7z"/></g></g>
</svg>