<?xml version="1.0" encoding="utf-8"?>
<!-- Svg Vector Icons : http://www.onlinewebfonts.com/icon -->
<!DOCTYPE svg PUBLIC "-//W3C//DTD SVG 1.1//EN" "http://www.w3.org/Graphics/SVG/1.1/DTD/svg11.dtd">
<svg version="1.1" xmlns="http://www.w3.org/2000/svg" xmlns:xlink="http://www.w3.org/1999/xlink" x="0px" y="0px" viewBox="0 0 1000 1000" enable-background="new 0 0 1000 1000" xml:space="preserve">
<metadata> Svg Vector Icons : http://www.onlinewebfonts.com/icon </metadata>
<g><g transform="translate(0.000000,512.000000) scale(0.100000,-0.100000)"><path d="M4840.1,4993.3c-113-40.2-162.9-80.5-220.3-178.2c-51.7-88.1-53.6-103.5-59.4-398.5l-7.7-308.5l-222.2-32.6C2887.7,3864.8,1619.4,2926,981.3,1600.1C682.4,979.4,546.4,381.6,546.4-315.8C544.5-967.2,653.7-1513.3,897-2082.3c613.1-1429.3,1904.5-2421.8,3467.9-2663.2c306.6-46,958-46,1264.5,0c806.6,124.6,1559.6,454.1,2178.5,954.1c364,295.1,758.7,749.2,1009.7,1166.8C9852.2-907.9,9605.1,1308.9,8217.9,2744l-197.3,205l111.1,134.1c63.2,72.8,116.9,134.1,122.6,134.1c5.8,1.9,78.6-53.6,161-122.6c82.4-69,164.8-124.5,183.9-124.5c34.5,0,231.8,212.7,254.8,275.9c17.2,46-13.4,76.6-538.4,515.4c-224.2,185.8-419.6,339.1-436.8,339.1c-53.7,0-256.8-239.5-256.8-302.7c0-26.8,49.8-80.5,143.7-159c78.6-65.1,143.7-124.5,143.7-134.1c0-15.3-206.9-266.3-220.3-266.3c-3.8,0-113.1,69-243.3,155.2c-546,356.4-1159.2,592-1776.1,682.1l-228,32.6l-7.7,308.5c-5.7,304.6-5.7,310.4-63.2,404.3C5267.3,4989.5,5039.3,5064.2,4840.1,4993.3z M5409.1,3659.8C6924.6,3493.1,8196.9,2517.9,8742.9,1102c341-883.3,346.8-1937,15.3-2824.1C8239-3111.2,7043.4-4076.8,5562.4-4302.9c-283.6-44.1-844.9-44.1-1130.4,0c-1228.1,187.8-2260.8,877.5-2887.4,1931.3C1264.9-1900.3,1081-1361.9,1012-804.4C983.3-563,989-34.2,1023.5,214.9c95.8,684,364,1331.6,781.7,1883.4c145.6,193.5,475.2,534.6,662.9,685.9c592,477.1,1333.5,787.5,2088.4,873.7C4761.5,3680.9,5206,3682.8,5409.1,3659.8z"/><path d="M4780.7,2786.1c-7.7-7.7-13.4-624.6-13.4-1371.8V55.9l-65.1-57.5c-149.5-130.3-187.8-344.9-95.8-530.7c159-318.1,622.7-318.1,781.7,0c92,185.8,53.6,400.4-95.8,530.7l-65.1,57.5l-3.8,1366.1l-5.8,1366.1l-212.7,5.7C4889.9,2795.7,4788.4,2791.9,4780.7,2786.1z"/></g></g>
</svg>